<svg width="32" height="32" viewBox="0 0 32 32" fill="none" xmlns="http://www.w3.org/2000/svg">
<circle cx="16" cy="16" r="16" fill="#7790FF"/>
<g clip-path="url(#clip0_1_17783)">
<path d="M24.2299 19.678C24.0906 20.7366 23.5707 21.7083 22.7673 22.4116C21.9639 23.1149 20.932 23.5018 19.8643 23.4998C13.6611 23.4998 8.61426 18.453 8.61426 12.2498C8.61235 11.1821 8.99918 10.1502 9.70249 9.34679C10.4058 8.54341 11.3775 8.02352 12.4361 7.88422C12.7038 7.85153 12.9749 7.9063 13.2089 8.04034C13.443 8.17438 13.6273 8.38052 13.7346 8.62797L15.3846 12.3116C15.3843 12.3147 15.3843 12.3178 15.3846 12.3209C15.4667 12.5104 15.5006 12.7172 15.4833 12.9229C15.466 13.1286 15.398 13.3268 15.2854 13.4998C15.2713 13.5209 15.2565 13.5405 15.2408 13.56L13.6143 15.4881C14.1994 16.6772 15.4432 17.91 16.6479 18.4967L18.5494 16.8787C18.5681 16.8631 18.5877 16.8484 18.608 16.835C18.781 16.7196 18.98 16.6491 19.1871 16.63C19.3942 16.6109 19.6028 16.6438 19.794 16.7256L19.8033 16.7303L23.483 18.3795C23.731 18.4863 23.9379 18.6704 24.0725 18.9045C24.2071 19.1385 24.2623 19.4099 24.2299 19.678ZM17.9893 12.2498H19.8643V14.1248C19.8643 14.2906 19.9301 14.4496 20.0473 14.5668C20.1645 14.684 20.3235 14.7498 20.4893 14.7498C20.655 14.7498 20.814 14.684 20.9312 14.5668C21.0484 14.4496 21.1143 14.2906 21.1143 14.1248V12.2498H22.9893C23.155 12.2498 23.314 12.184 23.4312 12.0668C23.5484 11.9496 23.6143 11.7906 23.6143 11.6248C23.6143 11.4591 23.5484 11.3001 23.4312 11.1829C23.314 11.0657 23.155 10.9998 22.9893 10.9998H21.1143V9.12484C21.1143 8.95908 21.0484 8.80011 20.9312 8.6829C20.814 8.56569 20.655 8.49984 20.4893 8.49984C20.3235 8.49984 20.1645 8.56569 20.0473 8.6829C19.9301 8.80011 19.8643 8.95908 19.8643 9.12484V10.9998H17.9893C17.8235 10.9998 17.6645 11.0657 17.5473 11.1829C17.4301 11.3001 17.3643 11.4591 17.3643 11.6248C17.3643 11.7906 17.4301 11.9496 17.5473 12.0668C17.6645 12.184 17.8235 12.2498 17.9893 12.2498Z" fill="white"/>
</g>
<defs>
<clipPath id="clip0_1_17783">
<rect width="20" height="20" fill="white" transform="translate(6.11426 6)"/>
</clipPath>
</defs>
</svg>
