<svg width="24" height="24" viewBox="0 0 24 24" fill="none" xmlns="http://www.w3.org/2000/svg">
<g>
<path d="M2.6875 6.83586V5.69553C2.6875 4.09325 3.98641 2.79429 5.58873 2.79429H8.19461C9.79689 2.79429 11.0958 4.09325 11.0958 5.69553V9.6574C11.0958 10.5108 10.404 11.2026 9.55061 11.2026H5.58873C4.04889 11.2026 2.78922 10.003 2.69336 8.48736" stroke="#1A1A1A" stroke-miterlimit="10" stroke-linecap="round" stroke-linejoin="round"/>
<path d="M18.4046 11.2021H14.4426C13.5892 11.2021 12.8975 10.5104 12.8975 9.65696V5.69504C12.8975 4.09276 14.1964 2.79385 15.7986 2.79385H18.4046C20.0069 2.79385 21.3058 4.09276 21.3058 5.69504V8.30091C21.3058 9.90324 20.0069 11.2021 18.4046 11.2021Z" stroke="#1A1A1A" stroke-miterlimit="10" stroke-linecap="round" stroke-linejoin="round"/>
<path d="M8.19461 21.2017H5.58869C3.98641 21.2017 2.6875 19.9028 2.6875 18.3004V15.6946C2.6875 14.0923 3.98641 12.7934 5.58869 12.7934H9.55061C10.404 12.7934 11.0958 13.4851 11.0958 14.3386V18.3004C11.0958 19.9028 9.79689 21.2017 8.19461 21.2017Z" stroke="#1A1A1A" stroke-miterlimit="10" stroke-linecap="round" stroke-linejoin="round"/>
<path d="M15.3739 13.1858C15.9006 12.9466 16.4857 12.8134 17.1018 12.8134C19.4125 12.8134 21.2857 14.6866 21.2857 16.9973C21.2857 19.3079 19.4125 21.1812 17.1018 21.1812C14.7911 21.1812 12.918 19.3079 12.918 16.9973C12.918 15.8892 13.3487 14.8816 14.052 14.1331" stroke="#1A1A1A" stroke-miterlimit="10" stroke-linecap="round" stroke-linejoin="round"/>
<path d="M19.4454 20.8739L20.4199 22.3374" stroke="#1A1A1A" stroke-miterlimit="10" stroke-linecap="round" stroke-linejoin="round"/>
</g>
</svg>
