<svg width="32" height="32" viewBox="0 0 32 32" fill="none" xmlns="http://www.w3.org/2000/svg">
<path d="M8.53376 18.6671C10.8902 18.6671 12.8004 16.7569 12.8004 14.4005C12.8004 12.044 10.8902 10.1338 8.53376 10.1338C6.17733 10.1338 4.26709 12.044 4.26709 14.4005C4.26709 16.7569 6.17733 18.6671 8.53376 18.6671Z" fill="#696969"/>
<path d="M16.0002 29.8666V27.1999C16.0002 22.9333 11.7736 20.2666 8.53356 20.2666C5.29356 20.2666 1.06689 22.9333 1.06689 27.1999V29.8666H16.0002Z" fill="#696969"/>
<path d="M28.267 2.66699H14.9336C13.7555 2.66699 12.8003 3.62219 12.8003 4.80033V9.63979C14.1064 10.811 14.9336 12.507 14.9336 14.4003C14.9336 15.3219 14.7347 16.195 14.3848 16.987C14.5608 17.0339 14.7432 17.067 14.9336 17.067H19.2003V18.915C19.2003 19.3673 19.5672 19.7337 20.019 19.7337C20.1806 19.7337 20.339 19.6857 20.4734 19.5961L24.267 17.067H28.267C29.4451 17.067 30.4003 16.1118 30.4003 14.9337V4.80033C30.4003 3.62219 29.4451 2.66699 28.267 2.66699Z" fill="#696969"/>
</svg>
