<svg width="32" height="32" viewBox="0 0 32 32" fill="none" xmlns="http://www.w3.org/2000/svg">
<path d="M22 3.50012C26.41 3.50012 30 7.09012 30 11.5001C30 13.3601 29.35 15.1701 28.165 16.6001C28.025 16.7651 28.01 17.0051 28.13 17.1851L29.44 19.2501L26.11 18.5101C25.995 18.4851 25.87 18.5001 25.765 18.5551C24.615 19.1701 23.315 19.4951 22.005 19.4951C21.28 19.4951 20.58 19.3901 19.915 19.2101C19.96 19.5551 19.985 19.9051 19.995 20.2601C20.645 20.4101 21.315 20.4951 22.005 20.4951C23.415 20.4951 24.815 20.1601 26.07 19.5251L30.4 20.4851C30.435 20.4951 30.47 20.4951 30.51 20.4951C30.67 20.4951 30.825 20.4151 30.92 20.2801C31.035 20.1151 31.04 19.8951 30.935 19.7251L29.175 16.9451C30.365 15.3851 31.015 13.4651 31.015 11.4951C31.015 6.53012 26.98 2.49512 22.015 2.49512C17.05 2.49512 13.32 6.25012 13.04 10.9651C13.375 11.0701 13.7 11.2001 14.02 11.3401C14.105 7.00012 17.655 3.49512 22.01 3.49512L22 3.50012Z" fill="#F47839"/>
<path d="M18 7.75H26V9.25H18V7.75Z" fill="#F47839"/>
<path d="M18 10.75H26V12.25H18V10.75Z" fill="#F47839"/>
<path d="M20 13.75H26V15.25H20V13.75Z" fill="#F47839"/>
<path d="M5.77 28.445C7.03 29.12 8.47 29.5 10 29.5C14.97 29.5 19 25.47 19 20.5C19 15.53 14.97 11.5 10 11.5C5.03 11.5 1 15.53 1 20.5C1 22.68 1.775 24.68 3.065 26.235L1 29.5L5.77 28.445ZM10 25.75C9.45 25.75 9 25.3 9 24.75C9 24.2 9.45 23.75 10 23.75C10.55 23.75 11 24.2 11 24.75C11 25.3 10.55 25.75 10 25.75ZM10 15.25C11.515 15.25 12.75 16.485 12.75 18C12.75 19.255 11.905 20.32 10.75 20.645V22.5H9.25V20C9.25 19.585 9.585 19.25 10 19.25C10.69 19.25 11.25 18.69 11.25 18C11.25 17.31 10.69 16.75 10 16.75C9.31 16.75 8.75 17.31 8.75 18H7.25C7.25 16.485 8.485 15.25 10 15.25Z" fill="#F47839"/>
</svg>
