<svg width="16" height="16" viewBox="0 0 16 16" fill="none" xmlns="http://www.w3.org/2000/svg">
<g clip-path="url(#clip0_1_582)">
<path d="M15.3327 8.0023C15.3304 9.79457 14.6728 11.5241 13.4838 12.8652C12.2947 14.2063 10.6563 15.0664 8.87722 15.2833C8.8376 15.2878 8.79749 15.2839 8.75952 15.2717C8.72155 15.2596 8.68658 15.2395 8.65693 15.2128C8.62728 15.1862 8.60362 15.1536 8.5875 15.1171C8.57139 15.0806 8.56318 15.0412 8.56344 15.0013V9.69458H10.2557C10.3331 9.69475 10.4096 9.67901 10.4806 9.64836C10.5516 9.6177 10.6155 9.57278 10.6684 9.51637C10.7213 9.45997 10.7621 9.39329 10.7881 9.32047C10.8142 9.24766 10.825 9.17027 10.8199 9.09311C10.8074 8.94806 10.7405 8.8131 10.6325 8.71538C10.5246 8.61766 10.3837 8.56443 10.2381 8.56639H8.56344V6.87411C8.56344 6.57489 8.6823 6.28794 8.89388 6.07636C9.10546 5.86478 9.39243 5.74592 9.69164 5.74592H10.8199C10.8972 5.74609 10.9737 5.73036 11.0447 5.6997C11.1157 5.66905 11.1797 5.62412 11.2326 5.56772C11.2855 5.51131 11.3262 5.44463 11.3522 5.37182C11.3783 5.29901 11.3891 5.22162 11.384 5.14446C11.3715 4.99915 11.3044 4.86399 11.1961 4.76624C11.0879 4.66848 10.9466 4.61541 10.8008 4.61773H9.69164C9.09321 4.61773 8.51928 4.85546 8.09612 5.27861C7.67296 5.70176 7.43523 6.27568 7.43523 6.87411V8.56639H5.74292C5.66559 8.56622 5.58905 8.58195 5.51805 8.61261C5.44705 8.64326 5.38312 8.68819 5.33022 8.74459C5.27732 8.801 5.23658 8.86768 5.21053 8.94049C5.18449 9.0133 5.17369 9.09069 5.17881 9.16785C5.19129 9.31316 5.25841 9.44832 5.36664 9.54607C5.47486 9.64382 5.61614 9.6969 5.76196 9.69458H7.43523V15.0027C7.43547 15.0425 7.42729 15.0819 7.41121 15.1183C7.39514 15.1547 7.37154 15.1873 7.34197 15.214C7.3124 15.2406 7.27752 15.2607 7.23964 15.2729C7.20175 15.2851 7.16171 15.2891 7.12215 15.2847C5.29541 15.0623 3.61876 14.1621 2.42407 12.7624C1.22937 11.3628 0.603709 9.56557 0.67092 7.72659C0.811945 3.91896 3.89618 0.823498 7.7067 0.675424C8.69324 0.637211 9.67736 0.798362 10.6002 1.14924C11.523 1.50011 12.3656 2.03351 13.0775 2.71751C13.7894 3.40152 14.3561 4.22208 14.7436 5.13012C15.1311 6.03817 15.3314 7.01503 15.3327 8.0023Z" fill="black"/>
</g>
<defs>
<clipPath id="clip0_1_582">
<rect width="16" height="16" fill="white"/>
</clipPath>
</defs>
</svg>
