<svg width="16" height="16" viewBox="0 0 16 16" fill="none" xmlns="http://www.w3.org/2000/svg">
<path d="M2.04283 5.00585C2.5975 3.90135 3.44841 2.97286 4.50045 2.32417C5.55249 1.67547 6.7642 1.33213 8.00016 1.33252C9.79683 1.33252 11.3062 1.99319 12.4602 3.06919L10.5488 4.98119C9.8575 4.32052 8.97883 3.98385 8.00016 3.98385C6.2635 3.98385 4.7935 5.15719 4.27016 6.73252C4.13683 7.13252 4.06083 7.55919 4.06083 7.99919C4.06083 8.43919 4.13683 8.86585 4.27016 9.26585C4.79416 10.8419 6.2635 12.0145 8.00016 12.0145C8.89683 12.0145 9.66016 11.7779 10.2575 11.3779C10.6038 11.1499 10.9003 10.854 11.129 10.5082C11.3577 10.1624 11.5139 9.77376 11.5882 9.36585H8.00016V6.78719H14.2788C14.3575 7.22319 14.4002 7.67785 14.4002 8.15052C14.4002 10.1812 13.6735 11.8905 12.4122 13.0505C11.3095 14.0692 9.80016 14.6659 8.00016 14.6659C7.12459 14.6662 6.25752 14.494 5.44853 14.1591C4.63953 13.8242 3.90446 13.3331 3.28534 12.714C2.66621 12.0949 2.17516 11.3598 1.84025 10.5508C1.50535 9.74183 1.33315 8.87476 1.3335 7.99919C1.3335 6.92319 1.59083 5.90585 2.04283 5.00585Z" fill="black"/>
</svg>
