<svg width="24" height="24" viewBox="0 0 24 24" fill="none" xmlns="http://www.w3.org/2000/svg">
    <path d="M4.89418 11.7645H2.93652L11.746 2.94141L20.5554 11.7645H18.5978" stroke="#1A1A1A"
        stroke-width="1.3051" stroke-linecap="round" stroke-linejoin="round" />
    <path
        d="M4.89453 11.7646V18.627C4.89453 19.147 5.10078 19.6457 5.46792 20.0134C5.83505 20.3811 6.33299 20.5877 6.85219 20.5877H16.6405C17.1597 20.5877 17.6576 20.3811 18.0247 20.0134C18.3919 19.6457 18.5981 19.147 18.5981 18.627V11.7646"
        stroke="#1A1A1A" stroke-width="1.3051" stroke-linecap="round" stroke-linejoin="round" />
    <path
        d="M8.80957 20.5869V14.7048C8.80957 14.1848 9.01582 13.6861 9.38295 13.3184C9.75009 12.9507 10.248 12.7441 10.7672 12.7441H12.7249C13.2441 12.7441 13.742 12.9507 14.1092 13.3184C14.4763 13.6861 14.6825 14.1848 14.6825 14.7048V20.5869"
        stroke="#1A1A1A" stroke-width="1.3051" stroke-linecap="round" stroke-linejoin="round" />
</svg>