<svg width="32" height="32" viewBox="0 0 32 32" fill="none" xmlns="http://www.w3.org/2000/svg">
<circle cx="16" cy="16" r="16" fill="#37AA65"/>
<g clip-path="url(#clip0_1_17773)">
<path d="M24.1156 19.8108C23.9763 20.8694 23.4564 21.8411 22.6531 22.5444C21.8497 23.2477 20.8177 23.6346 19.75 23.6327C13.5469 23.6327 8.50001 18.5858 8.50001 12.3827C8.49809 11.3149 8.88492 10.283 9.58824 9.4796C10.2916 8.67622 11.2633 8.15633 12.3219 8.01703C12.5896 7.98434 12.8607 8.03911 13.0947 8.17315C13.3287 8.3072 13.5131 8.51333 13.6203 8.76078L15.2703 12.4444V12.4537C15.3524 12.6432 15.3863 12.85 15.369 13.0557C15.3517 13.2614 15.2837 13.4596 15.1711 13.6327C15.157 13.6537 15.1422 13.6733 15.1266 13.6928L13.5 15.6209C14.0852 16.81 15.3289 18.0428 16.5336 18.6295L18.4352 17.0116C18.4538 16.9959 18.4734 16.9813 18.4938 16.9678C18.6666 16.8525 18.8655 16.7821 19.0725 16.763C19.2794 16.7439 19.4878 16.7767 19.6789 16.8584L19.6891 16.8631L23.3695 18.5123C23.6174 18.6192 23.8241 18.8034 23.9585 19.0375C24.093 19.2715 24.1481 19.5428 24.1156 19.8108ZM18.5 14.2577H21.625C21.7908 14.2577 21.9497 14.1918 22.0669 14.0746C22.1842 13.9574 22.25 13.7984 22.25 13.6327C22.25 13.4669 22.1842 13.3079 22.0669 13.1907C21.9497 13.0735 21.7908 13.0077 21.625 13.0077H20.0094L22.6922 10.3248C22.8095 10.2076 22.8754 10.0485 22.8754 9.88265C22.8754 9.7168 22.8095 9.55774 22.6922 9.44047C22.5749 9.32319 22.4159 9.25731 22.25 9.25731C22.0842 9.25731 21.9251 9.32319 21.8078 9.44047L19.125 12.1241V10.5077C19.125 10.3419 19.0592 10.1829 18.9419 10.0657C18.8247 9.9485 18.6658 9.88265 18.5 9.88265C18.3342 9.88265 18.1753 9.9485 18.0581 10.0657C17.9409 10.1829 17.875 10.3419 17.875 10.5077V13.6327C17.875 13.7984 17.9409 13.9574 18.0581 14.0746C18.1753 14.1918 18.3342 14.2577 18.5 14.2577Z" fill="white"/>
</g>
<defs>
<clipPath id="clip0_1_17773">
<rect width="20" height="20" fill="white" transform="translate(6 6.13281)"/>
</clipPath>
</defs>
</svg>
