<svg width="32" height="32" viewBox="0 0 32 32" fill="none" xmlns="http://www.w3.org/2000/svg">
<circle cx="16" cy="16" r="16" fill="#7790FF"/>
<g clip-path="url(#clip0_1_17795)">
<path d="M23.1787 9.2124H9.42873C9.09721 9.2124 8.77927 9.3441 8.54485 9.57852C8.31043 9.81294 8.17873 10.1309 8.17873 10.4624V22.9624C8.17729 23.2008 8.24472 23.4345 8.37292 23.6354C8.50112 23.8364 8.68463 23.996 8.90139 24.0952C9.06657 24.1721 9.24653 24.2121 9.42873 24.2124C9.72217 24.2117 10.0059 24.1071 10.2295 23.9171C10.2332 23.9147 10.2367 23.9118 10.2397 23.9085L12.749 21.7124H23.1787C23.5103 21.7124 23.8282 21.5807 24.0626 21.3463C24.297 21.1119 24.4287 20.7939 24.4287 20.4624V10.4624C24.4287 10.1309 24.297 9.81294 24.0626 9.57852C23.8282 9.3441 23.5103 9.2124 23.1787 9.2124ZM12.8662 16.3999C12.6808 16.3999 12.4996 16.3449 12.3454 16.2419C12.1912 16.1389 12.0711 15.9925 12.0001 15.8212C11.9291 15.6499 11.9106 15.4614 11.9467 15.2795C11.9829 15.0976 12.0722 14.9306 12.2033 14.7995C12.3344 14.6684 12.5015 14.5791 12.6833 14.5429C12.8652 14.5067 13.0537 14.5253 13.225 14.5963C13.3963 14.6672 13.5427 14.7874 13.6457 14.9416C13.7488 15.0957 13.8037 15.277 13.8037 15.4624C13.8037 15.711 13.705 15.9495 13.5291 16.1253C13.3533 16.3011 13.1149 16.3999 12.8662 16.3999ZM16.3037 16.3999C16.1183 16.3999 15.9371 16.3449 15.7829 16.2419C15.6287 16.1389 15.5086 15.9925 15.4376 15.8212C15.3666 15.6499 15.3481 15.4614 15.3842 15.2795C15.4204 15.0976 15.5097 14.9306 15.6408 14.7995C15.7719 14.6684 15.939 14.5791 16.1208 14.5429C16.3027 14.5067 16.4912 14.5253 16.6625 14.5963C16.8338 14.6672 16.9802 14.7874 17.0832 14.9416C17.1862 15.0957 17.2412 15.277 17.2412 15.4624C17.2412 15.711 17.1425 15.9495 16.9666 16.1253C16.7908 16.3011 16.5524 16.3999 16.3037 16.3999ZM19.7412 16.3999C19.5558 16.3999 19.3746 16.3449 19.2204 16.2419C19.0662 16.1389 18.9461 15.9925 18.8751 15.8212C18.8041 15.6499 18.7856 15.4614 18.8217 15.2795C18.8579 15.0976 18.9472 14.9306 19.0783 14.7995C19.2094 14.6684 19.3765 14.5791 19.5583 14.5429C19.7402 14.5067 19.9287 14.5253 20.1 14.5963C20.2713 14.6672 20.4177 14.7874 20.5207 14.9416C20.6237 15.0957 20.6787 15.277 20.6787 15.4624C20.6787 15.711 20.58 15.9495 20.4041 16.1253C20.2283 16.3011 19.9899 16.3999 19.7412 16.3999Z" fill="white"/>
</g>
<defs>
<clipPath id="clip0_1_17795">
<rect width="20" height="20" fill="white" transform="translate(6.30371 5.4624)"/>
</clipPath>
</defs>
</svg>
