<svg width="27" height="27" viewBox="0 0 27 27" fill="none" xmlns="http://www.w3.org/2000/svg">
<g  clip-path="url(#clip0_1_1406)">
<path d="M13.0513 21.7853L9.78852 18.5175H7.61335C6.74801 18.5175 5.91811 18.1732 5.30623 17.5604C4.69434 16.9476 4.35059 16.1164 4.35059 15.2497V8.71409C4.35059 7.84742 4.69434 7.01624 5.30623 6.40341C5.91811 5.79057 6.74801 5.44629 7.61335 5.44629H18.4892C19.3546 5.44629 20.1845 5.79057 20.7963 6.40341C21.4082 7.01624 21.752 7.84742 21.752 8.71409V15.2497C21.752 16.1164 21.4082 16.9476 20.7963 17.5604C20.1845 18.1732 19.3546 18.5175 18.4892 18.5175H16.314L13.0513 21.7853Z" stroke="#1A1A1A" stroke-width="1.3051" stroke-linecap="round" stroke-linejoin="round"/>
<path d="M8.70117 9.80371H17.4019" stroke="#1A1A1A" stroke-width="1.3051" stroke-linecap="round" stroke-linejoin="round"/>
<path d="M8.70117 14.1606H15.2267" stroke="#1A1A1A" stroke-width="1.3051" stroke-linecap="round" stroke-linejoin="round"/>
</g>
<defs>
<clipPath id="clip0_1_1406">
<rect width="26.1021" height="26.1424" fill="white"/>
</clipPath>
</defs>
</svg>
