<svg width="32" height="32" viewBox="0 0 32 32" fill="none" xmlns="http://www.w3.org/2000/svg">
<circle cx="16" cy="16" r="16" fill="#F78A8A"/>
<g clip-path="url(#clip0_1_17778)">
<path d="M23.0002 22.3128C23.0566 22.3733 23.1004 22.4444 23.129 22.522C23.1577 22.5996 23.1707 22.6821 23.1672 22.7647C23.1638 22.8474 23.1439 22.9285 23.1089 23.0034C23.0739 23.0783 23.0243 23.1455 22.9631 23.2012C22.9019 23.2568 22.8303 23.2997 22.7523 23.3274C22.6744 23.3552 22.5918 23.3672 22.5092 23.3627C22.4266 23.3583 22.3457 23.3375 22.2712 23.3016C22.1967 23.2656 22.1301 23.2153 22.0752 23.1534L15.0041 15.3745C14.7777 15.4239 14.5544 15.4865 14.3354 15.562L13.8744 17.8675C13.8337 18.0714 13.7426 18.2619 13.6096 18.4218C13.4766 18.5817 13.3058 18.7059 13.1127 18.7831L13.0901 18.7917L9.26194 20.1487C9.01177 20.2455 8.7371 20.2592 8.47852 20.1879C8.21995 20.1166 7.99117 19.964 7.826 19.7526C6.47991 18.0175 6.63069 15.7151 8.19241 14.1534C9.20652 13.1381 10.4089 12.3303 11.7322 11.7753L9.57678 9.4034C9.52043 9.34286 9.47665 9.27174 9.44798 9.19416C9.41932 9.11658 9.40633 9.03408 9.40979 8.95145C9.41324 8.86881 9.43306 8.78769 9.46809 8.71277C9.50313 8.63785 9.55269 8.57063 9.6139 8.51501C9.67511 8.45938 9.74674 8.41646 9.82466 8.38873C9.90258 8.36099 9.98523 8.349 10.0678 8.35344C10.1504 8.35788 10.2313 8.37868 10.3058 8.41461C10.3803 8.45054 10.4469 8.5009 10.5018 8.56277L23.0002 22.3128ZM24.3815 14.1534C22.1268 11.8979 18.9518 10.7034 15.6713 10.8721C15.5532 10.8784 15.4392 10.918 15.3427 10.9863C15.2462 11.0547 15.1711 11.1491 15.1261 11.2585C15.0811 11.3679 15.0681 11.4878 15.0885 11.6043C15.109 11.7208 15.1621 11.8291 15.2416 11.9167L22.3362 19.7214C22.4053 19.7976 22.4923 19.8556 22.5893 19.8901L23.3119 20.1464C23.5621 20.2432 23.8368 20.2569 24.0953 20.1856C24.3539 20.1142 24.5827 19.9616 24.7479 19.7503C26.094 18.0175 25.9432 15.7151 24.3815 14.1534Z" fill="white"/>
</g>
<defs>
<clipPath id="clip0_1_17778">
<rect width="20" height="20" fill="white" transform="translate(6.28809 5.85791)"/>
</clipPath>
</defs>
</svg>
