<svg width="32" height="32" viewBox="0 0 32 32" fill="none" xmlns="http://www.w3.org/2000/svg">
<circle cx="16" cy="16" r="16" fill="#7790FF"/>
<g clip-path="url(#clip0_1_17788)">
<path d="M24.7186 13.2923C24.7196 14.2278 24.4872 15.1487 24.0425 15.9718C23.5978 16.7948 22.9549 17.494 22.172 18.0059C21.389 18.5178 20.4907 18.8264 19.5584 18.9037C18.6261 18.981 17.6893 18.8246 16.8327 18.4486L12.7655 23.1533C12.7561 23.1642 12.7452 23.1759 12.7351 23.1861C12.2662 23.655 11.6302 23.9184 10.9671 23.9184C10.304 23.9184 9.66801 23.655 9.19911 23.1861C8.73022 22.7172 8.4668 22.0812 8.4668 21.4181C8.4668 20.755 8.73022 20.119 9.19911 19.6501C9.21005 19.64 9.22099 19.629 9.23271 19.6197L13.9374 15.5533C13.5159 14.5891 13.373 13.526 13.525 12.4847C13.677 11.4434 14.1178 10.4656 14.7973 9.66208C15.4768 8.85859 16.3679 8.2616 17.3695 7.93885C18.3711 7.61609 19.4431 7.58049 20.464 7.83607C20.5692 7.86245 20.6657 7.91576 20.7441 7.99077C20.8225 8.06577 20.88 8.15989 20.911 8.26386C20.942 8.36782 20.9453 8.47807 20.9208 8.58374C20.8963 8.68941 20.8446 8.78688 20.771 8.86654L17.8436 12.0423L18.2858 14.1009L20.3436 14.5423L23.5194 11.6111C23.5991 11.5374 23.6966 11.4858 23.8022 11.4613C23.9079 11.4367 24.0181 11.4401 24.1221 11.4711C24.2261 11.5021 24.3202 11.5596 24.3952 11.6379C24.4702 11.7163 24.5235 11.8129 24.5499 11.9181C24.6621 12.3676 24.7187 12.8291 24.7186 13.2923Z" fill="white"/>
</g>
<defs>
<clipPath id="clip0_1_17788">
<rect width="20" height="20" fill="white" transform="translate(6.59375 5.79248)"/>
</clipPath>
</defs>
</svg>
