<svg width="32" height="32" viewBox="0 0 32 32" fill="none" xmlns="http://www.w3.org/2000/svg">
<circle cx="16" cy="16" r="16" fill="#7790FF"/>
<g clip-path="url(#clip0_1_17768)">
<path d="M21.4167 11.625C20.5479 11.6258 19.6991 11.8852 18.9783 12.3702C18.2575 12.8552 17.6975 13.5438 17.3695 14.3483C17.0415 15.1527 16.9604 16.0366 17.1366 16.8873C17.3128 17.738 17.7383 18.517 18.3588 19.125H13.2245C13.9489 18.4152 14.4043 17.4757 14.5126 16.4672C14.6209 15.4587 14.3754 14.4439 13.8182 13.5964C13.261 12.749 12.4266 12.1214 11.4578 11.8211C10.489 11.5208 9.44599 11.5665 8.50713 11.9503C7.56828 12.3341 6.79194 13.0322 6.31092 13.9251C5.82989 14.8181 5.67406 15.8504 5.87009 16.8456C6.06612 17.8407 6.60182 18.7368 7.38556 19.3806C8.1693 20.0244 9.15239 20.3759 10.1667 20.375H21.4167C22.577 20.375 23.6898 19.9141 24.5102 19.0936C25.3307 18.2731 25.7917 17.1603 25.7917 16C25.7917 14.8397 25.3307 13.7269 24.5102 12.9064C23.6898 12.0859 22.577 11.625 21.4167 11.625ZM10.1667 19.125C9.54859 19.125 8.9444 18.9417 8.4305 18.5983C7.9166 18.255 7.51606 17.7669 7.27953 17.1959C7.04301 16.6249 6.98112 15.9965 7.1017 15.3903C7.22228 14.7842 7.51991 14.2273 7.95695 13.7903C8.39399 13.3533 8.95081 13.0556 9.557 12.935C10.1632 12.8145 10.7915 12.8764 11.3625 13.1129C11.9336 13.3494 12.4216 13.7499 12.765 14.2638C13.1084 14.7777 13.2917 15.3819 13.2917 16C13.2917 16.4104 13.2108 16.8167 13.0538 17.1959C12.8967 17.575 12.6665 17.9195 12.3764 18.2097C12.0862 18.4999 11.7417 18.7301 11.3625 18.8871C10.9834 19.0442 10.577 19.125 10.1667 19.125ZM21.4167 19.125C20.7986 19.125 20.1944 18.9417 19.6805 18.5983C19.1666 18.255 18.7661 17.7669 18.5295 17.1959C18.293 16.6249 18.2311 15.9965 18.3517 15.3903C18.4723 14.7842 18.7699 14.2273 19.2069 13.7903C19.644 13.3533 20.2008 13.0556 20.807 12.935C21.4132 12.8145 22.0415 12.8764 22.6125 13.1129C23.1836 13.3494 23.6716 13.7499 24.015 14.2638C24.3584 14.7777 24.5417 15.3819 24.5417 16C24.5417 16.8288 24.2124 17.6237 23.6264 18.2097C23.0403 18.7958 22.2455 19.125 21.4167 19.125ZM23.2917 16C23.2917 16.3708 23.1817 16.7334 22.9757 17.0417C22.7696 17.35 22.4768 17.5904 22.1342 17.7323C21.7916 17.8742 21.4146 17.9113 21.0509 17.839C20.6871 17.7666 20.3531 17.588 20.0908 17.3258C19.8286 17.0636 19.65 16.7295 19.5777 16.3658C19.5053 16.0021 19.5425 15.6251 19.6844 15.2825C19.8263 14.9399 20.0666 14.647 20.375 14.441C20.6833 14.235 21.0458 14.125 21.4167 14.125C21.9139 14.125 22.3909 14.3225 22.7425 14.6742C23.0941 15.0258 23.2917 15.5027 23.2917 16ZM12.0417 16C12.0417 16.3708 11.9317 16.7334 11.7257 17.0417C11.5196 17.35 11.2268 17.5904 10.8842 17.7323C10.5416 17.8742 10.1646 17.9113 9.80086 17.839C9.43715 17.7666 9.10305 17.588 8.84083 17.3258C8.57861 17.0636 8.40003 16.7295 8.32768 16.3658C8.25534 16.0021 8.29247 15.6251 8.43438 15.2825C8.5763 14.9399 8.81662 14.647 9.12496 14.441C9.4333 14.235 9.79582 14.125 10.1667 14.125C10.6639 14.125 11.1409 14.3225 11.4925 14.6742C11.8441 15.0258 12.0417 15.5027 12.0417 16Z" fill="white"/>
</g>
<defs>
<clipPath id="clip0_1_17768">
<rect width="20" height="20" fill="white" transform="translate(5.79199 6)"/>
</clipPath>
</defs>
</svg>
